<?xml version="1.0" encoding="UTF-8" standalone="no"?>
<svg
   xmlns:dc="http://purl.org/dc/elements/1.1/"
   xmlns:cc="http://creativecommons.org/ns#"
   xmlns:rdf="http://www.w3.org/1999/02/22-rdf-syntax-ns#"
   xmlns:svg="http://www.w3.org/2000/svg"
   xmlns="http://www.w3.org/2000/svg"
   xmlns:sodipodi="http://sodipodi.sourceforge.net/DTD/sodipodi-0.dtd"
   xmlns:inkscape="http://www.inkscape.org/namespaces/inkscape"
   id="svgroot"
   height="79.607964"
   width="306.90482"
   sodipodi:version="0.32"
   inkscape:version="0.46"
   sodipodi:docname="3k3-yanel-contrib-logo.svg"
   inkscape:output_extension="org.inkscape.output.svg.inkscape"
   version="1.0">
  <metadata
     id="metadata33">
    <rdf:RDF>
      <cc:Work
         rdf:about="">
        <dc:format>image/svg+xml</dc:format>
        <dc:type
           rdf:resource="http://purl.org/dc/dcmitype/StillImage" />
      </cc:Work>
    </rdf:RDF>
  </metadata>
  <sodipodi:namedview
     inkscape:window-height="977"
     inkscape:window-width="1680"
     inkscape:pageshadow="2"
     inkscape:pageopacity="0.0"
     guidetolerance="10.0"
     gridtolerance="10.0"
     objecttolerance="10.0"
     borderopacity="1.0"
     bordercolor="#666666"
     pagecolor="#ffffff"
     id="base"
     showgrid="false"
     inkscape:zoom="4.1608992"
     inkscape:cx="153.45241"
     inkscape:cy="39.803982"
     inkscape:window-x="0"
     inkscape:window-y="0"
     inkscape:current-layer="svgroot" />
  <defs
     id="defs3">
    <inkscape:perspective
       sodipodi:type="inkscape:persp3d"
       inkscape:vp_x="0 : 240 : 1"
       inkscape:vp_y="0 : 1000 : 0"
       inkscape:vp_z="640 : 240 : 1"
       inkscape:persp3d-origin="320 : 160 : 1"
       id="perspective35" />
    <linearGradient
       id="svg_13"
       x1="0"
       y1="0"
       x2="1"
       y2="1">
      <stop
         offset="0.0"
         stop-color="#ffffff"
         stop-opacity="1"
         id="stop6" />
      <stop
         offset="1.0"
         stop-color="#afafaf"
         stop-opacity="1"
         id="stop8" />
    </linearGradient>
    <linearGradient
       id="svg_14"
       x1="0"
       y1="0"
       x2="1"
       y2="1">
      <stop
         offset="0.0"
         stop-color="#ffffff"
         stop-opacity="1"
         id="stop11" />
      <stop
         offset="1.0"
         stop-color="#bababa"
         stop-opacity="1"
         id="stop13" />
    </linearGradient>
    <linearGradient
       id="svg_15"
       x1="0"
       y1="0"
       x2="1"
       y2="1">
      <stop
         offset="0.0"
         stop-color="#ffffff"
         stop-opacity="1"
         id="stop16" />
      <stop
         offset="1.0"
         stop-color="#bababa"
         stop-opacity="1"
         id="stop18" />
    </linearGradient>
    <desc
       id="desc4048">Drawing</desc>
  </defs>
  <rect
     style="fill:#000000;fill-opacity:1;stroke:none;stroke-width:1;stroke-miterlimit:4;stroke-dasharray:none;stroke-opacity:1"
     id="rect2414"
     y="0.020014372"
     x="0"
     ry="11.503792"
     height="79.567924"
     width="306.90482" />
  <path
     style="font-size:130.23532104px;font-style:normal;font-variant:normal;font-weight:normal;font-stretch:normal;fill:#ffffff;fill-opacity:1;stroke:none;stroke-width:1px;stroke-linecap:butt;stroke-linejoin:miter;stroke-opacity:1;font-family:Arab;-inkscape-font-specification:Arab"
     id="path2412"
     d="M 11.291409,9.7539315 L 26.22227,9.7539315 L 26.22227,69.854011 L 11.291409,69.854011 L 11.291409,9.7539315 M 37.469749,14.355441 L 52.400613,14.355441 L 52.400613,69.854011 L 37.469749,69.854011 L 37.469749,14.355441 M 63.648095,18.381771 L 78.578955,18.381771 L 78.578955,69.854011 L 63.648095,69.854011 L 63.648095,18.381771 M 88.346505,21.641171 L 102.02765,21.641171 L 102.02765,44.586721 L 112.0254,34.927671 L 128.50198,34.927671 L 115.97189,47.161771 L 129.2255,69.854011 L 114.13019,69.854011 L 107.05941,55.844031 L 102.02765,60.777121 L 102.02765,69.854011 L 88.346505,69.854011 L 88.346505,21.641171 M 134.81635,18.381771 L 149.74722,18.381771 L 149.74722,69.854011 L 134.81635,69.854011 L 134.81635,18.381771 M 160.99469,14.355441 L 175.92556,14.355441 L 175.92556,69.854011 L 160.99469,69.854011 L 160.99469,14.355441 M 187.17304,9.7539315 L 202.1039,9.7539315 L 202.1039,69.854011 L 187.17304,69.854011 L 187.17304,9.7539315" />
  <g
     style="fill:#4682b4;fill-opacity:1;visibility:visible"
     id="g4050"
     transform="matrix(6.0940396e-2,0,0,6.5737374e-2,9.9213246,-714.23657)">
    <g
       style="fill:#4682b4;fill-opacity:1;stroke:none"
       id="g4052">
      <path
         d="M 3803,11713 L 3805,11720 L 3808,11727 L 3811,11734 L 3814,11741 L 3816,11748 L 3818,11755 L 3818,11759 L 3819,11762 L 3819,11766 L 3819,11769 L 3819,11777 L 3818,11781 L 3817,11784 L 3817,11787 L 3816,11790 L 3814,11793 L 3813,11796 L 3811,11799 L 3809,11801 L 3807,11803 L 3805,11805 L 3803,11807 L 3800,11809 L 3797,11811 L 3794,11812 L 3788,11814 L 3781,11817 L 3774,11818 L 3767,11820 L 3760,11821 L 3753,11821 L 3745,11822 L 3738,11822 L 3553,11822 L 3553,12076 L 3764,12076 L 3852,12074 L 3870,12073 L 3887,12072 L 3904,12070 L 3919,12068 L 3926,12067 L 3933,12066 L 3947,12063 L 3960,12060 L 3973,12056 L 3985,12051 L 3998,12046 L 4012,12039 L 4025,12032 L 4043,12021 L 4060,12010 L 4075,11998 L 4090,11985 L 4103,11972 L 4116,11958 L 4127,11943 L 4137,11928 L 4156,11897 L 4175,11865 L 4193,11832 L 4210,11798 L 4635,10865 L 4196,10865 L 4094,11169 L 4070,11252 L 4065,11268 L 4061,11285 L 4053,11316 L 4046,11348 L 4042,11364 L 4039,11381 L 4025,11462 L 4007,11364 L 3991,11286 L 3970,11207 L 3937,11104 L 3857,10865 L 3421,10865 L 3803,11713 z"
         style="fill:#4682b4;fill-opacity:1"
         id="path4054" />
    </g>
    <g
       style="fill:#4682b4;fill-opacity:1"
       id="g4056" />
  </g>
</svg>
